<svg xmlns="http://www.w3.org/2000/svg"
     viewBox="-2 -4 28 32"
     width="100"
     height="100"
     fill="#DC2627">
  <path fill-rule="evenodd" clip-rule="evenodd"
        d="M12 5a1 1 0 0 0 1-1V1a1 1 0 0 0-2 0v3a1 1 0 0 0 1 1ZM18.38 7.12a1 1 0 0 0 .71-.29l2.12-2.12a1 1 0 1 0-1.42-1.42l-2.12 2.12a1 1 0 0 0 0 1.42 1 1 0 0 0 .71.29ZM23 11h-2.5a1 1 0 0 0 0 2H23a1 1 0 0 0 0-2ZM4.91 6.83a1 1 0 0 0 .71.29 1 1 0 0 0 .71-.29 1 1 0 0 0 0-1.42L4.21 3.29a1 1 0 0 0-1.42 1.42ZM4.5 12a1 1 0 0 0-1-1H1a1 1 0 0 0 0 2h2.5a1 1 0 0 0 1-1ZM17.33 18a.52.52 0 0 0 .37-.16.53.53 0 0 0 .13-.38l-.63-8.75a2.49 2.49 0 0 0-2.48-2.21H9.28A2.49 2.49 0 0 0 6.8 8.73l-.63 8.73a.53.53 0 0 0 .13.38.52.52 0 0 0 .37.16ZM17 19.5H7A2.5 2.5 0 0 0 4.5 22v.5A1.5 1.5 0 0 0 6 24h12a1.5 1.5 0 0 0 1.5-1.5V22a2.5 2.5 0 0 0-2.5-2.5Z"/>
</svg>