<?xml version="1.0"?>
<svg xmlns="http://www.w3.org/2000/svg" width="512" height="512" viewBox="0 0 512 512">
  <rect width="512" height="512" fill="#0E172A"></rect>
  <g transform="translate(40.94,159.55) scale(2.44)" fill="#FFFFFF">
    
    <path d="M39.53,0 A39.53,39.53 0 0 0 0,39.53 L21.35,39.53 A18.18,18.18 0 0 1 39.53,21.35 Z"></path>
    <path d="M79.06,39.53 A39.53,39.53 0 0 1 39.53,79.06 L39.53,57.71 A18.18,18.18 0 0 0 57.71,39.53 Z"></path>
    <circle cx="39.53" cy="39.53" r="9.32"></circle>
    
    <path d="M127.67,0 A39.53,39.53 0 0 0 127.67,79.06 L127.67,57.71 A18.18,18.18 0 0 1 127.67,21.35 Z"></path>
    
    <path d="M176.28,0 A39.53,39.53 0 0 0 176.28,79.06 L176.28,57.71 A18.18,18.18 0 0 1 176.28,21.35 Z"></path>
  </g>
</svg>