<svg version="1.1" id="Layer_1" xmlns="http://www.w3.org/2000/svg" xmlns:xlink="http://www.w3.org/1999/xlink" x="0px" y="0px" viewBox="272 230 132 90" fill="currentColor" xml:space="preserve">
<path d="M297.94,274.95c0-10.02,8.15-18.18,18.18-18.18v-21.35c-21.79,0-39.53,17.73-39.53,39.53H297.94z"></path>
<path d="M334.3,274.95c0,10.02-8.15,18.18-18.18,18.18v21.35c21.79,0,39.53-17.73,39.53-39.53H334.3z"></path>
<path d="M377,274.95c0-10.02,8.15-18.18,18.18-18.18v-21.35c-21.79,0-39.53,17.73-39.53,39.53H377z"></path>
<path d="M376.99,274.95c0,10.02-8.15,18.18-18.18,18.18v21.35c21.79,0,39.53-17.73,39.53-39.53H376.99z"></path>
<circle cx="316.32" cy="274.95" r="9.32"></circle>
</svg>